<?xml version="1.0" encoding="UTF-8"?>
<svg width="200px" height="200px" viewBox="0 0 200 200" version="1.1" xmlns="http://www.w3.org/2000/svg">
    <g stroke="none" stroke-width="1" fill="none" fill-rule="evenodd">
        <g transform="translate(40, 20)">
            <!-- Building Base -->
            <rect fill="#889F63" opacity="0.2" x="20" y="60" width="80" height="100" rx="4"/>
            
            <!-- Windows -->
            <rect fill="#889F63" opacity="0.3" x="30" y="70" width="20" height="20" rx="2"/>
            <rect fill="#889F63" opacity="0.3" x="70" y="70" width="20" height="20" rx="2"/>
            <rect fill="#889F63" opacity="0.3" x="30" y="100" width="20" height="20" rx="2"/>
            <rect fill="#889F63" opacity="0.3" x="70" y="100" width="20" height="20" rx="2"/>
            <rect fill="#889F63" opacity="0.3" x="30" y="130" width="20" height="20" rx="2"/>
            <rect fill="#889F63" opacity="0.3" x="70" y="130" width="20" height="20" rx="2"/>
            
            <!-- Door -->
            <rect fill="#889F63" opacity="0.4" x="45" y="140" width="30" height="20" rx="2"/>
            
            <!-- Roof -->
            <path d="M10,60 L60,20 L110,60" stroke="#889F63" stroke-width="4" opacity="0.3"/>
            
            <!-- Plus Icon -->
            <circle fill="#889F63" opacity="0.2" cx="100" cy="40" r="15"/>
            <path d="M93,40 L107,40 M100,33 L100,47" stroke="#889F63" stroke-width="2"/>
        </g>
    </g>
</svg>
